<?xml version="1.0" encoding="UTF-8"?>
<svg width="40px" height="40px" viewBox="0 0 40 40" version="1.1" xmlns="http://www.w3.org/2000/svg" xmlns:xlink="http://www.w3.org/1999/xlink">
    <title>avatar1</title>
    <defs>
        <circle id="path-1" cx="20" cy="20" r="20"></circle>
    </defs>
    <g id="Assets" stroke="none" stroke-width="1" fill="none" fill-rule="evenodd">
        <g id="assets" transform="translate(-46.000000, -349.000000)">
            <g id="avatar1" transform="translate(46.000000, 349.000000)">
                <circle id="Oval" fill="#FFFFFF" fill-rule="nonzero" cx="20" cy="20" r="20"></circle>
                <g id="Clipped">
                    <mask id="mask-2" fill="white">
                        <use xlink:href="#path-1"></use>
                    </mask>
                    <g id="Oval"></g>
                    <g id="Group" mask="url(#mask-2)" fill-rule="nonzero">
                        <g transform="translate(4.014241, 6.116212)" id="Path">
                            <polygon fill="#212122" points="24.982579 10.8355919 24.982579 29.0618916 6.86520893 29.0618916 7.00343523 10.4832983"></polygon>
                            <path d="M27.128267,23.7652555 C21.2249031,21.909598 20.3111417,20.9248886 20.3111417,20.9248886 L16.3343832,20.4992005 L15.6236799,20.4992005 L11.6469215,20.9248886 C11.6469215,20.9248886 10.7319368,21.9108213 4.82977162,23.7652555 C-0.141482199,25.327335 0.000413825885,32.5713717 0.000413825885,32.5713717 L14.8126707,34.5028702 C15.5869826,34.6043993 16.3710805,34.6043993 17.1441692,34.5028702 L31.9564016,32.5713717 C31.9576248,32.5713717 32.0995209,25.3285583 27.128267,23.7652555 Z" fill="#215FE2"></path>
                            <path d="M19.7790316,20.6410965 L15.9441692,20.2875797 L12.1093068,20.6410965 L10.9729154,22.345072 C10.9729154,22.345072 13.6713863,32.7132678 15.9441692,34.4172433 C18.2169521,32.7132678 20.915423,22.345072 20.915423,22.345072 L19.7790316,20.6410965 Z" fill="#EEB170"></path>
                            <path d="M12.0028848,20.7829925 C12.0028848,20.7829925 6.46401016,24.4135736 4.75881138,30.0429314 L10.439582,28.674124 L15.9784202,34.8441546 C15.9796432,34.8441546 12.0738328,24.5102097 12.0028848,20.7829925 Z" fill="#FFFFFF"></path>
                            <path d="M19.9564016,20.7829925 C19.9564016,20.7829925 25.4952395,24.4135736 27.2004383,30.0429314 L21.5197043,28.674124 L15.9808661,34.8441546 C15.9796432,34.8441546 19.8854536,24.5102097 19.9564016,20.7829925 Z" fill="#FFFFFF"></path>
                            <path d="M9.00716612,7.82519437 L9.00716612,15.6466011 C9.00716612,17.1756531 9.64325175,18.6362035 10.7625178,19.6784054 L12.181478,20.9995063 C14.2964628,22.9689253 17.573527,22.9689253 19.6885117,20.9995063 L21.1074719,19.6784054 C22.226738,18.6362035 22.8628236,17.1756531 22.8628236,15.6466011 L22.8628236,7.82519437 C22.8628236,5.6368274 21.0891233,3.86312709 18.9007441,3.86312709 L12.9692456,3.86312709 C10.7808664,3.86312709 9.00716612,5.6368274 9.00716612,7.82519437 Z" fill="#F6BB7C"></path>
                            <path d="M22.7955453,4.31813626 C22.9190927,2.18847266 21.7019673,-0.478194011 14.4811722,0.0734879465 C6.51422422,0.682662258 7.00229762,10.4832983 7.00229762,10.4832983 L9.28361872,13.1780996 C9.91725786,10.3609742 7.50871964,5.46309039 17.7765851,6.56525553 C20.4738328,6.85516379 21.7007441,6.30959804 22.2634352,5.74076623 C22.4811722,6.40623412 22.9680224,8.23008733 22.8028848,10.8355919 L24.981478,10.8355919 L24.981478,7.21357357 C24.9827013,7.21357357 25.1527319,4.31813626 22.7955453,4.31813626 Z" fill="#212122"></path>
                            <path d="M22.5312028,15.8998121 L22.7122426,15.8998121 C23.6406829,15.8998121 24.3929765,15.1475185 24.3929765,14.2190782 L24.3929765,11.2294757 C24.3929765,10.7414023 23.9978695,10.3462953 23.5097961,10.3462953 L23.4877777,10.3462953 C22.5886952,10.3462953 21.8608627,11.0753473 21.8608627,11.9732066 L21.8608627,15.2282525 C21.8596432,15.6001179 22.1593374,15.8998121 22.5312028,15.8998121 Z" fill="#F6BB7C"></path>
                            <path d="M9.37890924,15.8998121 L9.22600404,15.8998121 C8.32814471,15.8998121 7.59915389,15.1719834 7.59915389,14.2729008 L7.59915389,11.2013412 C7.59915389,10.7291699 7.98201627,10.3462953 8.4541386,10.3462953 C9.32386337,10.3462953 10.0284505,11.0508824 10.0284505,11.9206072 L10.0284505,15.2502708 C10.0284505,15.6099038 9.73731902,15.8998121 9.37890924,15.8998121 Z" fill="#F6BB7C"></path>
                            <path d="M7.85980221,16.3401791 C8.13004074,16.3401791 8.34906214,16.1210965 8.34906214,15.8508824 C8.34906214,15.5806684 8.13004074,15.3615858 7.85980221,15.3615858 C7.58957591,15.3615858 7.37050557,15.5806684 7.37050557,15.8508824 C7.37050557,16.1210965 7.58957591,16.3401791 7.85980221,16.3401791 Z" fill="#FFFFFF"></path>
                            <path d="M24.1288787,16.3401791 C24.3990927,16.3401791 24.6181753,16.1210965 24.6181753,15.8508824 C24.6181753,15.5806684 24.3990927,15.3615858 24.1288787,15.3615858 C23.8586646,15.3615858 23.639582,15.5806684 23.639582,15.8508824 C23.639582,16.1210965 23.8586646,16.3401791 24.1288787,16.3401791 Z" fill="#FFFFFF"></path>
                        </g>
                    </g>
                </g>
                <path d="M20,40 C31.0457492,40 40,31.0457492 40,20 C40,8.95429969 31.0457492,0 20,0 C8.95429969,0 0,8.95429969 0,20 C0,31.0457492 8.95429969,40 20,40 Z M20,39.0214067 C30.5051988,39.0214067 39.0214067,30.5051988 39.0214067,20 C39.0214067,9.49476453 30.5051988,0.978593272 20,0.978593272 C9.49476453,0.978593272 0.978593272,9.49476453 0.978593272,20 C0.978593272,30.5051988 9.49476453,39.0214067 20,39.0214067 Z" id="Shape" fill="#212122"></path>
            </g>
        </g>
    </g>
</svg>