<?xml version="1.0" encoding="UTF-8"?>
<svg width="29px" height="29px" viewBox="0 0 29 29" version="1.1" xmlns="http://www.w3.org/2000/svg" xmlns:xlink="http://www.w3.org/1999/xlink">
    <title>configuracion-off</title>
    <g id="Assets" stroke="none" stroke-width="1" fill="none" fill-rule="evenodd">
        <g id="assets" transform="translate(-46.000000, -283.000000)">
            <g id="configuracion-off" transform="translate(46.000000, 283.000000)">
                <rect id="Rectangle-Copy-4" fill-opacity="0" fill="#FFFFFF" x="0" y="0" width="29" height="29"></rect>
                <g id="Setting" transform="translate(3.000000, 2.000000)" stroke="#FFFFFF" stroke-linecap="round" stroke-linejoin="round" stroke-width="2">
                    <path d="M22.665291,6.91222907 L21.8604744,5.51558005 C21.1795354,4.33380309 19.6706336,3.926119 18.4872015,4.60421319 L18.4872015,4.60421319 C17.9239333,4.93604486 17.2517874,5.03019444 16.6189512,4.86589496 C15.986115,4.70158255 15.4447,4.2923209 15.1139286,3.72834153 C14.901216,3.36987229 14.7869072,2.96156752 14.7825107,2.54474132 L14.7825107,2.54474132 C14.8017777,1.87644873 14.549626,1.22884551 14.0835979,0.749459813 C13.6175698,0.270074121 12.977363,-0.000284254597 12.3088376,0 L10.6873081,0 C10.0322308,0 9.40430836,0.260983728 8.94228881,0.725240317 C8.48021753,1.18949691 8.22222106,1.81873831 8.22537619,2.47372505 L8.22537619,2.47372505 C8.20596697,3.82603416 7.10410271,4.91208398 5.75165136,4.91194174 C5.33481223,4.90760991 4.92652039,4.79328819 4.56803822,4.58053679 L4.56803822,4.58053679 C3.3846449,3.9024426 1.87567845,4.31012669 1.19477827,5.49191658 L0.330751277,6.91222907 C-0.34933426,8.09253191 0.0528024876,9.60055442 1.2302864,10.2854373 L1.2302864,10.2854373 C1.99566388,10.727414 2.46716175,11.5439977 2.46716175,12.4278218 C2.46716175,13.311646 1.99566388,14.1282296 1.2302864,14.570077 L1.2302864,14.570077 C0.0543024671,15.2504988 -0.34827393,16.7548748 0.330751277,17.9315828 L0.330751277,17.9315828 L1.14742546,19.3400119 C1.46646852,19.9156937 2.00174138,20.3404724 2.63482325,20.5204699 C3.26790512,20.7003381 3.94659412,20.6205547 4.52069835,20.298835 L4.52069835,20.298835 C5.08507857,19.969486 5.75762542,19.8792287 6.38884524,20.0481057 C7.02006507,20.217112 7.55766548,20.631158 7.88212657,21.1983055 C8.0948909,21.5567488 8.20921261,21.9651053 8.21354445,22.3818669 L8.21354445,22.3818669 C8.21354445,23.7481413 9.32103363,24.8556693 10.6873081,24.8556693 L12.3088376,24.8556693 C13.670457,24.8556693 14.7760453,23.7553826 14.7825107,22.3937633 L14.7825107,22.3937633 C14.7794073,21.7367464 15.0389297,21.1057205 15.5035354,20.6411148 C15.9681411,20.1765091 16.599167,19.9168574 17.2563132,19.9200902 C17.6720402,19.9312107 18.0787157,20.0450023 18.4398746,20.2513787 L18.4398746,20.2513787 C19.6202033,20.9315419 21.1281999,20.5293922 21.8131475,19.3519083 L21.8131475,19.3519083 L22.665291,17.9315828 C22.9951572,17.3653406 23.0856732,16.6909963 22.9169255,16.0579015 C22.7480485,15.4248067 22.3337438,14.8850727 21.7658205,14.55831 L21.7658205,14.55831 C21.1977679,14.2315472 20.7835926,13.6918132 20.6147156,13.0587184 C20.4458386,12.4254943 20.5363546,11.7512793 20.8662207,11.1850371 C21.0807437,10.8105594 21.3912136,10.4999602 21.7658205,10.2854373 L21.7658205,10.2854373 C22.9361925,9.60091648 23.337437,8.10171282 22.665291,6.92407374 L22.665291,6.92407374 L22.665291,6.91222907 Z" id="Path"></path>
                    <circle id="Oval" cx="11.5038917" cy="12.4278218" r="3.40878102"></circle>
                </g>
            </g>
        </g>
    </g>
</svg>