<?xml version="1.0" encoding="UTF-8"?>
<svg width="29px" height="29px" viewBox="0 0 29 29" version="1.1" xmlns="http://www.w3.org/2000/svg" xmlns:xlink="http://www.w3.org/1999/xlink">
    <title>configuracion-on</title>
    <g id="Assets" stroke="none" stroke-width="1" fill="none" fill-rule="evenodd">
        <g id="assets" transform="translate(-123.000000, -282.000000)" fill="#FFFFFF">
            <g id="configuracion-on" transform="translate(123.000000, 282.000000)">
                <rect id="Rectangle" fill-opacity="0" x="0" y="0" width="29" height="29"></rect>
                <g id="Setting" transform="translate(2.000000, 2.000000)">
                    <path d="M23.5557702,15.0539891 C24.0262962,15.3009893 24.3894539,15.6909897 24.6448485,16.0809901 C25.1424799,16.8869909 25.1020851,17.8749919 24.6180064,18.7459927 L23.6766911,20.3059943 C23.1791914,21.1379951 22.2514287,21.6579957 21.2966924,21.6579957 C20.8260347,21.6579957 20.3015613,21.5279955 19.8712984,21.2679953 C19.5216933,21.046995 19.1182724,20.968995 18.6880095,20.968995 C17.3566944,20.968995 16.2406424,22.047996 16.2002476,23.3349973 C16.2002476,24.8299988 14.963143,26 13.416828,26 L11.5880132,26 C10.0282771,26 8.79111989,24.8299988 8.79111989,23.3349973 C8.76422517,22.047996 7.64814679,20.968995 6.31691064,20.968995 C5.87316087,20.968995 5.46976634,21.046995 5.13359546,21.2679953 C4.70329305,21.5279955 4.16542491,21.6579957 3.70822778,21.6579957 C2.74005723,21.6579957 1.81222876,21.1379951 1.3147027,20.3059943 L0.38687423,18.7459927 C-0.110664986,17.9009919 -0.137559709,16.8869909 0.359979507,16.0809901 C0.575124133,15.6909897 0.978531819,15.3009893 1.43572895,15.0539891 C1.81222876,14.8719889 2.05428126,14.5729886 2.28287325,14.2219882 C2.95521501,13.1039871 2.55180732,11.6349856 1.40883423,10.971985 C0.0775980742,10.2310102 -0.352704335,8.58000858 0.413768953,7.29300729 L1.3147027,5.75900576 C2.09461019,4.47200447 3.76201722,4.01700402 5.10670074,4.77100477 C6.27656856,5.3950054 7.79605461,4.97900498 8.48184373,3.87400387 C8.69698836,3.51000351 8.81801461,3.12000312 8.79111989,2.73000273 C8.76422517,2.22300222 8.91214614,1.74200174 9.16763285,1.35200135 C9.66515891,0.546000546 10.56604,0.026000026 11.54775,0 L13.4436701,0 C14.4388012,0 15.3397218,0.546000546 15.8372215,1.35200135 C16.0793266,1.74200174 16.2406424,2.22300222 16.2002476,2.73000273 C16.1734055,3.12000312 16.2944581,3.51000351 16.5095896,3.87400387 C17.1953787,4.97900498 18.7148516,5.3950054 19.8981405,4.77100477 C21.2294556,4.01700402 22.9102442,4.47200447 23.6766911,5.75900576 L24.5776117,7.29300729 C25.3576113,8.58000858 24.9273484,10.2310102 23.5826122,10.971985 C22.4395865,11.6349856 22.0361657,13.1039871 22.7219548,14.2219882 C22.9372178,14.5729886 23.1791914,14.8719889 23.5557702,15.0539891 Z M8.69698836,13.012987 C8.69698836,15.0539891 10.4047243,16.6789907 12.5159074,16.6789907 C14.6270906,16.6789907 16.2944581,15.0539891 16.2944581,13.012987 C16.2944581,10.971985 14.6270906,9.33400933 12.5159074,9.33400933 C10.4047243,9.33400933 8.69698836,10.971985 8.69698836,13.012987 Z" id="Shape"></path>
                </g>
            </g>
        </g>
    </g>
</svg>