<?xml version="1.0" encoding="UTF-8"?>
<svg width="12px" height="20px" viewBox="0 0 12 20" version="1.1" xmlns="http://www.w3.org/2000/svg" xmlns:xlink="http://www.w3.org/1999/xlink">
    <title>HourglassMedium</title>
    <g id="Assets" stroke="none" stroke-width="1" fill="none" fill-rule="evenodd" stroke-linecap="round" stroke-linejoin="round">
        <g id="assets" transform="translate(-147.000000, -517.000000)" stroke="#115DFF" stroke-width="1.5">
            <g id="Group-3" transform="translate(148.000000, 518.000000)">
                <path d="M5,9 L0.25,4.725 C0.172375,4.655175 0.109375,4.564575 0.06598125,4.4604075 C0.0225875,4.35627 0,4.2414375 0,4.125 L0,0.75 C0,0.551085 0.06585,0.3603225 0.18305625,0.2196675 C0.30026875,0.07902 0.4592375,0 0.625,0 L9.375,0 C9.54075,0 9.69975,0.07902 9.8169375,0.2196675 C9.934125,0.3603225 10,0.551085 10,0.75 L10,4.0913625 C10,4.20732 9.977625,4.321695 9.9345625,4.42551 C9.8915,4.529325 9.8289375,4.619775 9.751875,4.689675 L5,9 Z" id="Path"></path>
                <path d="M5,9 L0.25,13.275 C0.172375,13.344825 0.109375,13.435425 0.06598125,13.5396 C0.0225875,13.6437 0,13.7586 0,13.875 L0,17.25 C0,17.4489 0.06585,17.6397 0.18305625,17.780325 C0.30026875,17.92095 0.4592375,18 0.625,18 L9.375,18 C9.54075,18 9.69975,17.92095 9.8169375,17.780325 C9.934125,17.6397 10,17.4489 10,17.25 L10,13.9086 C10,13.79265 9.977625,13.678275 9.9345625,13.574475 C9.8915,13.470675 9.8289375,13.380225 9.751875,13.310325 L5,9 Z" id="Path"></path>
                <line x1="0.832825" y1="5.24955" x2="9.1345625" y2="5.24955" id="Path"></line>
                <line x1="5" y1="12.74955" x2="5" y2="9" id="Path"></line>
            </g>
        </g>
    </g>
</svg>