<?xml version="1.0" encoding="UTF-8"?>
<svg width="29px" height="29px" viewBox="0 0 29 29" version="1.1" xmlns="http://www.w3.org/2000/svg" xmlns:xlink="http://www.w3.org/1999/xlink">
    <title>micuenta-on</title>
    <g id="Assets" stroke="none" stroke-width="1" fill="none" fill-rule="evenodd">
        <g id="assets" transform="translate(-124.000000, -88.000000)" fill="#FFFFFF">
            <g id="micuenta-on" transform="translate(124.000000, 88.000000)">
                <rect id="Rectangle" fill-opacity="0" x="0" y="0" width="29" height="29"></rect>
                <g id="Home" transform="translate(2.000000, 2.000000)" fill-rule="nonzero">
                    <path d="M8.72997368,23.4666122 L8.72997368,19.6444895 C8.72997368,18.6688651 9.56864474,17.8778656 10.6031579,17.8778656 L14.385,17.8778656 C14.8818421,17.8778656 15.3582895,18.0639905 15.7096053,18.3953653 C16.0609211,18.7266151 16.2582895,19.1759898 16.2582895,19.6444895 L16.2582895,23.4666122 C16.2551316,23.872237 16.4238158,24.2623617 16.7268421,24.5502366 C17.0298684,24.8381114 17.4422368,25 17.8722368,25 L20.4523684,25 C21.6573684,25.0028613 22.8142105,24.5534866 23.6673684,23.750987 C24.5205263,22.9484875 25,21.8587382 25,20.7222389 L25,9.83357049 C25,8.91557104 24.5685526,8.04479657 23.8218421,7.45583443 L15.0447368,0.84483844 C13.5180263,-0.314298357 11.3303947,-0.27687338 9.84919737,0.933725886 L1.27238158,7.45583443 C0.490447368,8.02743408 0.0230921053,8.90079605 0,9.83357049 L0,20.7111139 C0,23.0798625 2.03602632,25 4.54759211,25 L7.06880263,25 C7.96214474,25 8.68815789,24.3202367 8.69463158,23.4777372 L8.72997368,23.4666122 Z" id="Path"></path>
                </g>
            </g>
        </g>
    </g>
</svg>