<?xml version="1.0" encoding="UTF-8"?>
<svg width="29px" height="29px" viewBox="0 0 29 29" version="1.1" xmlns="http://www.w3.org/2000/svg" xmlns:xlink="http://www.w3.org/1999/xlink">
    <title>micuenta-off</title>
    <g id="Assets" stroke="none" stroke-width="1" fill="none" fill-rule="evenodd">
        <g id="assets" transform="translate(-46.000000, -88.000000)">
            <g id="micuenta-off" transform="translate(46.000000, 88.000000)">
                <rect id="Rectangle" fill-opacity="0" fill="#FFFFFF" x="0" y="0" width="29" height="29"></rect>
                <g id="Home" transform="translate(3.000000, 2.000000)" stroke="#FFFFFF" stroke-linecap="round" stroke-linejoin="round" stroke-width="1.5">
                    <g id="Path">
                        <path d="M8.05874,22.7232707 L8.05874,19.0109496 C8.05871579,18.066618 8.82851368,17.2993864 9.78226316,17.2930917 L13.2759632,17.2930917 C14.2342158,17.2930917 15.0111316,18.0621391 15.0111316,19.0109496 L15.0111316,19.0109496 L15.0111316,22.7347707 C15.0108895,23.5365022 15.6573105,24.1917601 16.4667895,24.2105233 L18.7959632,24.2105233 C21.1177526,24.2105233 23,22.3471601 23,20.0484917 L23,20.0484917 L23,9.48790855 C22.9876526,8.58363329 22.5587632,7.73447329 21.8354737,7.18208592 L13.8698474,0.829570658 C12.4743526,-0.276523553 10.4906632,-0.276523553 9.09516842,0.829570658 L1.16456263,7.19362224 C0.438525263,7.74375803 0.00894578947,8.59433434 0,9.49943276 L0,20.0484917 C0,22.3471601 1.88222316,24.2105233 4.20404895,24.2105233 L6.53316211,24.2105233 C7.36284474,24.2105233 8.03543737,23.5446128 8.03543737,22.7232707 L8.03543737,22.7232707"></path>
                    </g>
                </g>
            </g>
        </g>
    </g>
</svg>