<?xml version="1.0" encoding="UTF-8"?>
<svg width="29px" height="29px" viewBox="0 0 29 29" version="1.1" xmlns="http://www.w3.org/2000/svg" xmlns:xlink="http://www.w3.org/1999/xlink">
    <title>miscolicitudes-off</title>
    <g id="Assets" stroke="none" stroke-width="1" fill="none" fill-rule="evenodd">
        <g id="assets" transform="translate(-46.000000, -154.000000)">
            <g id="miscolicitudes-off" transform="translate(46.000000, 154.000000)">
                <rect id="Rectangle-Copy-2" fill-opacity="0" fill="#FFFFFF" x="0" y="0" width="29" height="29"></rect>
                <g id="Work" transform="translate(2.000000, 2.000000)" stroke="#FFFFFF" stroke-linecap="round" stroke-linejoin="round" stroke-width="1.5">
                    <path d="M0.0732621726,17.2024312 C0.0732621726,17.2024312 0.265203658,19.5516869 0.309809778,20.2924188 C0.369284604,21.2859187 0.753167575,22.3956649 1.39387366,23.1661343 C2.29816136,24.2583084 3.36330144,24.643543 4.78529047,24.6462464 C6.45734411,24.6489498 18.6159181,24.6489498 20.2879717,24.6462464 C21.7099607,24.643543 22.7751008,24.2583084 23.6793885,23.1661343 C24.3200946,22.3956649 24.7039776,21.2859187 24.7648041,20.2924188 C24.8080585,19.5516869 25,17.2024312 25,17.2024312" id="Path"></path>
                    <path d="M7.76699331,3.48603585 L7.76699331,2.98455493 C7.76699331,1.33548019 9.1024735,1.2005513e-15 10.7515888,1.2005513e-15 L14.2416797,1.2005513e-15 C15.8894028,1.2005513e-15 17.2262347,1.33548019 17.2262347,2.98455493 L17.2275864,3.48603585" id="Path"></path>
                    <line x1="12.4966343" y1="18.826094" x2="12.4966343" y2="17.0769934" id="Path"></line>
                    <path d="M2.40110261e-15,7.62173956 L2.40110261e-15,12.3080585 C2.59256175,14.0179598 5.69876974,15.2155665 9.10775865,15.6900134 C9.51597223,14.2017911 10.858238,13.1109687 12.4897406,13.1109687 C14.0955609,13.1109687 15.4648336,14.2017911 15.8460132,15.7035304 C19.2685191,15.2290835 22.3868924,14.0314768 24.9929712,12.3080585 L24.9929712,7.62173956 C24.9929712,5.33195874 23.1506032,3.48823912 20.8608224,3.48823912 L4.14566574,3.48823912 C1.85588493,3.48823912 2.40110261e-15,5.33195874 2.40110261e-15,7.62173956 Z" id="Path"></path>
                </g>
            </g>
        </g>
    </g>
</svg>