<?xml version="1.0" encoding="UTF-8"?>
<svg width="29px" height="29px" viewBox="0 0 29 29" version="1.1" xmlns="http://www.w3.org/2000/svg" xmlns:xlink="http://www.w3.org/1999/xlink">
    <title>miscolicitudes-on</title>
    <g id="Assets" stroke="none" stroke-width="1" fill="none" fill-rule="evenodd">
        <g id="assets" transform="translate(-124.000000, -154.000000)" fill="#FFFFFF">
            <g id="miscolicitudes-on" transform="translate(124.000000, 154.000000)">
                <rect id="Rectangle" fill-opacity="0" x="0" y="0" width="29" height="29"></rect>
                <g id="Work" transform="translate(2.000000, 2.000000)">
                    <path d="M10.8805,1.898725 C10.0425,1.898725 9.3296625,2.481 9.1295625,3.2658125 L15.857875,3.2658125 C15.657875,2.481 14.945,1.898725 14.107,1.898725 L10.8805,1.898725 Z M17.758875,3.2658 L20.235125,3.2658 C22.861375,3.2658 25,5.43035 25,8.0885625 C25,8.0885625 24.925,9.213875 24.9,10.781 C24.8975,10.905 24.837375,11.0265 24.738625,11.1 C24.137125,11.54425 23.58675,11.911375 23.53675,11.936625 C21.46075,13.329 19.04825,14.30875 16.47825,14.796125 C16.310625,14.829 16.145625,14.74175 16.0605,14.592375 C15.340125,13.34425 13.9945,12.531625 12.49375,12.531625 C11.003,12.531625 9.644825,13.335375 8.9032,14.58475 C8.8169125,14.731625 8.654325,14.816375 8.488,14.78475 C5.939225,14.296125 3.5267625,13.317625 1.4632375,11.94925 L0.2626375,11.113875 C0.1625875,11.050625 0.10005,10.936625 0.10005,10.810125 C0.0625375,10.1645 0,8.0885625 0,8.0885625 C0,5.43035 2.138575,3.2658 4.7648875,3.2658 L7.2286125,3.2658 C7.4662375,1.430375 9.0045,0 10.8805,0 L14.107,0 C15.983,0 17.52125,1.430375 17.758875,3.2658 Z M24.57475,13.519 L24.52475,13.544375 C21.9985,15.2405 18.9595,16.367125 15.770375,16.8355 C15.320125,16.89875 14.869875,16.607625 14.744875,16.152 C14.46975,15.114 13.58175,14.430375 12.51875,14.430375 L12.50625,14.430375 L12.48125,14.430375 C11.41825,14.430375 10.53025,15.114 10.255125,16.152 C10.130125,16.607625 9.6798375,16.89875 9.2296125,16.8355 C6.040525,16.367125 3.0015,15.2405 0.4752375,13.544375 C0.4627375,13.53175 0.337675,13.45575 0.237625,13.519 C0.1250625,13.582375 0.1250625,13.73425 0.1250625,13.73425 L0.2126125,20.189875 C0.2126125,22.848125 2.338675,25 4.9649875,25 L20.0225,25 C22.648875,25 24.774875,22.848125 24.774875,20.189875 L24.875,13.73425 C24.875,13.73425 24.875,13.582375 24.762375,13.519 C24.699875,13.481125 24.624875,13.49375 24.57475,13.519 Z M13.43175,18.822875 C13.43175,19.3545 13.019,19.772125 12.49375,19.772125 C11.981,19.772125 11.55575,19.3545 11.55575,18.822875 L11.55575,17.189875 C11.55575,16.670875 11.981,16.2405 12.49375,16.2405 C13.019,16.2405 13.43175,16.670875 13.43175,17.189875 L13.43175,18.822875 Z" id="Shape"></path>
                </g>
            </g>
        </g>
    </g>
</svg>