<?xml version="1.0" encoding="UTF-8"?>
<svg width="29px" height="29px" viewBox="0 0 29 29" version="1.1" xmlns="http://www.w3.org/2000/svg" xmlns:xlink="http://www.w3.org/1999/xlink">
    <title>notificaciones-off</title>
    <g id="Assets" stroke="none" stroke-width="1" fill="none" fill-rule="evenodd">
        <g id="assets" transform="translate(-46.000000, -220.000000)" fill="#FFFFFF">
            <g id="notificaciones-off" transform="translate(46.000000, 220.000000)">
                <rect id="Rectangle-Copy-3" fill-opacity="0" x="0" y="0" width="29" height="29"></rect>
                <g id="Notification" transform="translate(3.000000, 1.000000)">
                    <path d="M11.5488466,0 L11.4523819,0 C6.89412013,0 2.71473601,3.30734588 2.30927307,7.68600471 C2.28222777,7.99923765 2.26380071,8.31931647 2.25189483,8.66411353 L2.23524013,9.47023647 L2.23193895,10.1929912 L2.25228718,10.1106106 C2.06417424,11.0278235 1.63063777,11.8786882 0.996487184,12.5739647 L0.905610126,12.6908588 C0.362647773,13.5156118 0.0506595374,14.4703824 0.00237306679,15.4562706 L0.00122306679,15.7785412 C-0.0264986979,17.0752 0.417820714,18.3581941 1.2536813,19.3772294 C2.38718895,20.5740412 3.85448071,21.2879882 5.42930424,21.4395176 C9.45706424,21.8769235 13.5321231,21.8769235 17.5710584,21.4383 C19.1351937,21.2943471 20.6067878,20.5783706 21.6927937,19.4258 C22.5128113,18.4447824 22.9603642,17.2675882 22.9986525,16.0485882 L23,15.5029471 C22.9550878,14.4737647 22.6412054,13.5181824 22.0916407,12.6969471 L22.0081642,12.5897941 L21.804276,12.3499176 C21.3461701,11.7776235 21.0115878,11.1184706 20.8212289,10.4134259 L20.7608878,10.1602771 L20.7484407,9.89477588 C20.7446525,9.77536529 20.7428937,9.64295294 20.7422172,9.47756941 L20.7420819,8.56690471 C20.7389701,8.21854941 20.7286878,7.97082588 20.7046054,7.69195765 C20.2851937,3.30503235 16.1046054,0 11.5488466,0 Z M11.4523819,1.88782647 L11.5488466,1.88782647 C15.1984054,1.88782647 18.5277231,4.51983824 18.8474231,7.86499882 C18.8663642,8.08460824 18.8747525,8.29412471 18.8773231,8.60538235 L18.880976,9.82930706 C18.8850348,10.0250506 18.8927466,10.1878229 18.9058701,10.3709841 L18.9233231,10.4963612 L19.0111289,10.8695294 C19.2712995,11.8565 19.7384701,12.7773118 20.3816584,13.5712176 L20.5682289,13.7899882 L20.5475289,13.7556235 C20.9042995,14.2888176 21.1076466,14.9075176 21.136212,15.5454294 L21.1351113,15.7666353 C21.1566231,16.6543 20.8622231,17.4975882 20.3054878,18.1655353 C19.5696231,18.9438824 18.5178466,19.4555647 17.3871937,19.5597412 C13.4654231,19.9855118 9.52376424,19.9855118 5.61698424,19.5612294 C4.47393836,19.4512353 3.4213366,18.9391471 2.64323307,18.1200765 C2.13881601,17.5011059 1.84769013,16.6603882 1.86596836,15.7988353 L1.86618483,15.5029471 L1.88982071,15.2452118 C1.94675248,14.8140294 2.09082718,14.3770294 2.31414366,13.9746647 L2.42738483,13.7871471 C3.25760366,12.8534824 3.82736777,11.7179588 4.07832483,10.4943182 L4.09778013,10.3024576 L4.10661483,9.05873941 L4.12832954,8.42774118 C4.13819248,8.22868294 4.15080189,8.03955529 4.16661777,7.85623176 C4.47558895,4.52000059 7.80175424,1.88782647 11.4523819,1.88782647 Z M15.028476,23.9343412 C14.6271937,23.6076059 14.0401525,23.6720059 13.7173407,24.0781588 C13.5774466,24.2541765 13.4154995,24.4120647 13.2352878,24.5481706 C12.6238937,25.0275176 11.8611054,25.2410118 11.1027819,25.1506353 C10.3455407,25.0605294 9.65716424,24.6750765 9.19012895,24.0816765 C8.8692113,23.6739 8.28256248,23.6066588 7.87976483,23.9315 C7.47698071,24.2563412 7.41060542,24.8502824 7.73150954,25.2579235 C8.5059466,26.2419176 9.64079366,26.8773941 10.8848231,27.0255412 C12.1277701,27.1736882 13.379376,26.8234118 14.363776,26.0508824 C14.6560113,25.8306235 14.931876,25.5617941 15.1703995,25.2614412 C15.4932113,24.8552882 15.4296231,24.2610765 15.028476,23.9343412 Z" id="Shape"></path>
                </g>
            </g>
        </g>
    </g>
</svg>