<?xml version="1.0" encoding="UTF-8"?>
<svg width="35px" height="35px" viewBox="0 0 35 35" version="1.1" xmlns="http://www.w3.org/2000/svg" xmlns:xlink="http://www.w3.org/1999/xlink">
    <title>notification-3</title>
    <g id="Assets" stroke="none" stroke-width="1" fill="none" fill-rule="evenodd">
        <g id="assets-copy" transform="translate(-110.000000, -391.000000)">
            <g id="notification-3" transform="translate(110.000000, 391.000000)">
                <rect id="Rectangle" fill-opacity="0" fill="#FFFFFF" x="0" y="0" width="35" height="35"></rect>
                <g id="IdentificationCard" transform="translate(2.000000, 4.000000)" fill="#115DFF" fill-rule="nonzero">
                    <path d="M28.6153846,0 L2.38461538,0 C1.75239423,0.000727307692 1.14628462,0.252185 0.699240769,0.699240769 C0.252185,1.14628462 0.000727307692,1.75239423 0,2.38461538 L0,23.8461538 C0.000727307692,24.4783154 0.252185,25.0844846 0.699240769,25.5314808 C1.14628462,25.9785962 1.75239423,26.2300538 2.38461538,26.2307692 L28.6153846,26.2307692 C29.2475462,26.2300538 29.8537154,25.9785962 30.3007115,25.5314808 C30.7478269,25.0844846 30.9992846,24.4783154 31,23.8461538 L31,2.38461538 C30.9992846,1.75239423 30.7478269,1.14628462 30.3007115,0.699240769 C29.8537154,0.252185 29.2475462,0.000727307692 28.6153846,0 Z M15.0657615,20.2311962 C14.7595769,20.3100077 14.4345538,20.2638654 14.1622308,20.1031423 C13.8900269,19.9423 13.6927,19.6799923 13.6137692,19.3738077 C13.4150115,18.6062 12.9669423,17.9263462 12.3399077,17.4409577 C11.7128731,16.9555692 10.9424038,16.6923077 10.1495192,16.6923077 C9.35651538,16.6923077 8.58604615,16.9556885 7.95907115,17.4410769 C7.33206038,17.9264654 6.88402692,18.6064385 6.68534077,19.3740462 C6.64630462,19.5257077 6.57779462,19.6681885 6.48370962,19.7932615 C6.38962462,19.9184538 6.27180077,20.0238538 6.13698654,20.1035 C6.00216038,20.1831462 5.85297885,20.2353692 5.697955,20.2574269 C5.54291923,20.2793654 5.38508154,20.2705423 5.23344385,20.2315538 C5.08181808,20.1924462 4.93934923,20.1240077 4.81419269,20.0299346 C4.68903615,19.9358615 4.58363615,19.8179423 4.50401385,19.6832115 C4.42439154,19.5483615 4.37209692,19.3992038 4.35012269,19.2442038 C4.32816038,19.0890846 4.33693577,18.9312231 4.37597192,18.7796808 C4.73858846,17.3691808 5.60620692,16.1408654 6.814265,15.3277115 C6.13686731,14.6649077 5.67227269,13.8153885 5.47977462,12.8874154 C5.28727654,11.9594423 5.37560269,10.9952231 5.73348577,10.1176846 C6.09136885,9.24014615 6.70258154,8.48911154 7.489135,7.96044231 C8.27567654,7.43177308 9.20187308,7.14943462 10.1496385,7.14943462 C11.0972846,7.14943462 12.0234692,7.43177308 12.8100346,7.96044231 C13.5966,8.48911154 14.2077769,9.24014615 14.5657077,10.1176846 C14.9236385,10.9952231 15.0118692,11.9594423 14.8194308,12.8874154 C14.6268731,13.8153885 14.16235,14.6649077 13.4848808,15.3277115 C14.6929269,16.1408654 15.56045,17.3690615 15.92315,18.7793231 C16.0019615,19.0855077 15.9559385,19.4105308 15.7952154,19.6828538 C15.6343731,19.9551769 15.3719462,20.1523846 15.0657615,20.2311962 Z M25.0384615,16.6923077 L19.0769231,16.6923077 C18.7607231,16.6923077 18.4574,16.5666385 18.2338423,16.3430808 C18.0102846,16.1195231 17.8846154,15.8162 17.8846154,15.5 C17.8846154,15.1838 18.0102846,14.8804769 18.2338423,14.6569192 C18.4574,14.4333615 18.7607231,14.3076923 19.0769231,14.3076923 L25.0384615,14.3076923 C25.3546615,14.3076923 25.6579846,14.4333615 25.8815423,14.6569192 C26.1051,14.8804769 26.2307692,15.1838 26.2307692,15.5 C26.2307692,15.8162 26.1051,16.1195231 25.8815423,16.3430808 C25.6579846,16.5666385 25.3546615,16.6923077 25.0384615,16.6923077 Z M25.0384615,11.9230769 L19.0769231,11.9230769 C18.7607231,11.9230769 18.4574,11.7974077 18.2338423,11.57385 C18.0102846,11.3502923 17.8846154,11.0469692 17.8846154,10.7307692 C17.8846154,10.4145692 18.0102846,10.1112462 18.2338423,9.88768846 C18.4574,9.66413077 18.7607231,9.53846154 19.0769231,9.53846154 L25.0384615,9.53846154 C25.3546615,9.53846154 25.6579846,9.66413077 25.8815423,9.88768846 C26.1051,10.1112462 26.2307692,10.4145692 26.2307692,10.7307692 C26.2307692,11.0469692 26.1051,11.3502923 25.8815423,11.57385 C25.6579846,11.7974077 25.3546615,11.9230769 25.0384615,11.9230769 Z" id="Shape"></path>
                    <path d="M10.1497577,14.3076923 C11.4667808,14.3076923 12.5343731,13.2401 12.5343731,11.9230769 C12.5343731,10.6060538 11.4667808,9.53846154 10.1497577,9.53846154 C8.83273462,9.53846154 7.76514231,10.6060538 7.76514231,11.9230769 C7.76514231,13.2401 8.83273462,14.3076923 10.1497577,14.3076923 Z" id="Path"></path>
                </g>
            </g>
        </g>
    </g>
</svg>