<?xml version="1.0" encoding="UTF-8"?>
<svg width="35px" height="35px" viewBox="0 0 35 35" version="1.1" xmlns="http://www.w3.org/2000/svg" xmlns:xlink="http://www.w3.org/1999/xlink">
    <title>notification-1</title>
    <g id="Assets" stroke="none" stroke-width="1" fill="none" fill-rule="evenodd">
        <g id="assets-copy" transform="translate(-95.000000, -298.000000)">
            <g id="notification-1" transform="translate(95.000000, 298.000000)">
                <rect id="Rectangle" fill-opacity="0" fill="#FFFFFF" x="0" y="0" width="35" height="35"></rect>
                <g id="Group" transform="translate(2.000000, 2.000000)">
                    <rect id="Rectangle" fill="#115DFF" x="0" y="0" width="31" height="31" rx="5"></rect>
                    <g id="Filter" transform="translate(7.085714, 7.971429)" fill="#FFFFFF">
                        <path d="M6.09171257,2.99243886 C6.09171257,4.64577514 4.72870457,5.98584314 3.04585629,5.98584314 C1.36399114,5.98584314 0,4.64577514 0,2.99243886 C0,1.340068 1.36399114,0 3.04585629,0 C4.72870457,0 6.09171257,1.340068 6.09171257,2.99243886 Z M16.37978,1.681378 C17.1158971,1.681378 17.7142857,2.26922657 17.7142857,2.99243886 C17.7142857,3.71661657 17.1158971,4.304474 16.37978,4.304474 L10.5557657,4.304474 C9.81867429,4.304474 9.22037429,3.71661657 9.22037429,2.99243886 C9.22037429,2.26922657 9.81867429,1.681378 10.5557657,1.681378 L16.37978,1.681378 Z M1.33545343,11.4770857 L7.15949429,11.4770857 C7.89658571,11.4770857 8.49497429,12.0649343 8.49497429,12.7890943 C8.49497429,13.51228 7.89658571,14.1011029 7.15949429,14.1011029 L1.33545343,14.1011029 C0.598344286,14.1011029 0,13.51228 0,12.7890943 C0,12.0649343 0.598344286,11.4770857 1.33545343,11.4770857 Z M14.6684029,15.7460514 C16.35126,15.7460514 17.7142857,14.4059657 17.7142857,12.7535771 C17.7142857,11.1002143 16.35126,9.76021714 14.6684029,9.76021714 C12.9866086,9.76021714 11.6226086,11.1002143 11.6226086,12.7535771 C11.6226086,14.4059657 12.9866086,15.7460514 14.6684029,15.7460514 Z" id="Shape"></path>
                    </g>
                </g>
            </g>
        </g>
    </g>
</svg>