<?xml version="1.0" encoding="UTF-8"?>
<svg width="35px" height="35px" viewBox="0 0 35 35" version="1.1" xmlns="http://www.w3.org/2000/svg" xmlns:xlink="http://www.w3.org/1999/xlink">
    <title>notification-2</title>
    <g id="Assets" stroke="none" stroke-width="1" fill="none" fill-rule="evenodd">
        <g id="assets-copy" transform="translate(-95.000000, -345.000000)">
            <g id="notification-2" transform="translate(95.000000, 345.000000)">
                <rect id="Rectangle" fill-opacity="0" fill="#FFFFFF" x="0" y="0" width="35" height="35"></rect>
                <g id="Shape-2" transform="translate(2.000000, 2.000000)" fill="#115DFF" fill-rule="nonzero">
                    <path d="M15.5,2.34035014e-14 C12.4343381,2.34035014e-14 9.43759193,0.909063054 6.88866457,2.61222686 C4.33970145,4.31537874 2.35303065,6.73615676 1.1798714,9.56838823 C0.00671214535,12.4007151 -0.300235552,15.5171688 0.29783792,18.5239303 C0.895911392,21.5305725 2.37213142,24.292434 4.53985415,26.4601686 C6.70756496,28.6279031 9.46942654,30.1040993 12.4760689,30.7021608 C15.4828305,31.3002223 18.5994036,30.9933223 21.4316114,29.8200916 C24.2638191,28.6469801 26.6846807,26.660357 28.387773,24.1113225 C30.0909846,21.5624072 31,18.5656611 31,15.5 C30.9952308,11.390592 29.3606961,7.45087366 26.454923,4.54508873 C23.5491499,1.63930381 19.6094075,0.0047453845 15.5,2.34035014e-14 Z M23.3163542,12.664036 L14.0574966,20.9307267 C13.8221747,21.1403463 13.5095904,21.2571429 13.184634,21.2571429 C12.8596777,21.2571429 12.5472196,21.1403463 12.3117714,20.9307267 L7.68360508,16.7973813 C7.44180675,16.580794 7.30183817,16.2831932 7.29442755,15.9700037 C7.28701693,15.6569323 7.41277024,15.3537809 7.64407756,15.1273917 C7.87538488,14.9008844 8.19338511,14.7695621 8.52806239,14.7622402 C8.86273966,14.7549182 9.18693855,14.8721871 9.42933024,15.0883021 L13.184634,18.4431613 L21.5706291,10.9549567 C21.8130207,10.7388418 22.1372196,10.6215729 22.4718969,10.6288948 C22.8067004,10.6362167 23.124587,10.767539 23.3558691,10.9940463 C23.5871512,11.2204356 23.7130181,11.5235869 23.7055696,11.8366583 C23.6981211,12.1498478 23.5581147,12.4474487 23.3163542,12.664036 Z" id="Shape"></path>
                </g>
            </g>
        </g>
    </g>
</svg>