<?xml version="1.0" encoding="UTF-8"?>
<svg width="29px" height="29px" viewBox="0 0 29 29" version="1.1" xmlns="http://www.w3.org/2000/svg" xmlns:xlink="http://www.w3.org/1999/xlink">
    <title>notificaciones-on</title>
    <g id="Assets" stroke="none" stroke-width="1" fill="none" fill-rule="evenodd">
        <g id="assets" transform="translate(-123.000000, -220.000000)" fill="#FFFFFF">
            <g id="notificaciones-on" transform="translate(123.000000, 220.000000)">
                <rect id="Rectangle-Copy-3" fill-opacity="0" x="0" y="0" width="29" height="29"></rect>
                <g id="Notification" transform="translate(3.000000, 1.000000)">
                    <path d="M20.5743118,8.83522854 C20.5743118,10.4679895 21.0233529,11.4302494 22.0116765,12.5392793 C22.7606647,13.3563293 23,14.4050392 23,15.5427992 C23,16.6792591 22.6114353,17.7581291 21.8328176,18.634069 C20.8136471,19.684209 19.3761471,20.3544889 17.9091529,20.4710989 C15.7832765,20.6451689 13.6561824,20.7918089 11.5006765,20.7918089 C9.34381765,20.7918089 7.21800882,20.7041889 5.09213235,20.4710989 C3.62379882,20.3544889 2.18638,19.684209 1.16849471,18.634069 C0.389944706,17.7581291 0,16.6792591 0,15.5427992 C0,14.4050392 0.240688235,13.3563293 0.98831,12.5392793 C2.00754824,11.4302494 2.42706824,10.4679895 2.42706824,8.83522854 L2.42706824,8.28138957 C2.42706824,6.09484168 2.99450529,4.66507576 4.163,3.26541783 C5.90025765,1.22420994 8.68500294,0 11.4402,0 L11.5611529,0 C14.3755412,0 17.2502706,1.28312593 18.9580882,3.41205782 C20.0660118,4.78290775 20.5743118,6.15244468 20.5743118,8.28138957 L20.5743118,8.83522854 Z M7.54084765,23.4790388 C7.54084765,22.8244888 8.16610941,22.5245788 8.74430235,22.3962688 C9.42066471,22.2588588 13.5419941,22.2588588 14.2183294,22.3962688 C14.7965765,22.5245788 15.4217706,22.8244888 15.4217706,23.4790388 C15.3880824,24.1022587 15.0076353,24.6548887 14.4818824,25.0057587 C13.8001353,25.5163987 13.0001412,25.8397086 12.1637529,25.9563186 C11.7011824,26.0139086 11.2467294,26.0152086 10.8002588,25.9563186 C9.96251765,25.8397086 9.16252353,25.5163987 8.48210235,25.0044587 C7.95499647,24.6548887 7.57446824,24.1022587 7.54084765,23.4790388 Z" id="Shape"></path>
                </g>
            </g>
        </g>
    </g>
</svg>