<?xml version="1.0" encoding="UTF-8"?>
<svg width="25px" height="25px" viewBox="0 0 25 25" version="1.1" xmlns="http://www.w3.org/2000/svg" xmlns:xlink="http://www.w3.org/1999/xlink">
    <title>offerts</title>
    <g id="Assets" stroke="none" stroke-width="1" fill="none" fill-rule="evenodd">
        <g id="assets" transform="translate(-128.000000, -426.000000)">
            <g id="offerts" transform="translate(128.000000, 426.000000)">
                <rect id="Rectangle" fill-opacity="0" fill="#FFFFFF" x="0" y="0" width="25" height="25"></rect>
                <path d="M18.1230359,14.2290581 C17.8769842,14.4675097 17.7639334,14.8123621 17.8199838,15.1505644 L18.6645396,19.8245965 C18.7357901,20.2207492 18.5685889,20.621652 18.2370366,20.8506036 C17.9121344,21.0881052 17.4798814,21.1166054 17.125529,20.9266041 L12.9179501,18.732089 C12.7716491,18.6541885 12.609198,18.6123882 12.4429469,18.6076382 L12.1854951,18.6076382 C12.0961945,18.6209383 12.0087939,18.6494384 11.9289933,18.6931387 L7.72046443,20.8981039 C7.512413,21.0026046 7.27681138,21.0396549 7.0459598,21.0026046 C6.48355594,20.8962039 6.10830336,20.3604002 6.20045399,19.7951463 L7.0459598,15.1211142 C7.10201018,14.7800619 6.98895941,14.4333095 6.74290772,14.1910578 L3.31243417,10.866035 C3.0255322,10.5876831 2.92578151,10.1696802 3.05688241,9.79254664 C3.18418328,9.41634405 3.50908552,9.14179217 3.90143821,9.08004175 L8.62297063,8.39508704 C8.98207309,8.35803679 9.29747526,8.13953529 9.45897637,7.81653307 L11.5394907,3.55100378 C11.588891,3.45600313 11.6525414,3.36860253 11.729492,3.29450202 L11.8149925,3.22800157 C11.8596428,3.17860123 11.9109432,3.13775095 11.9679436,3.10450072 L12.0714943,3.06650046 L12.2329954,3 L12.6329482,3 C12.9901506,3.03705025 13.3046028,3.25080172 13.4689539,3.57000391 L15.5770184,7.81653307 C15.7290194,8.1271852 16.0244714,8.34283668 16.3655238,8.39508704 L21.0870562,9.08004175 C21.4860589,9.13704214 21.8195112,9.41254403 21.9515621,9.79254664 C22.076013,10.1734803 21.9686623,10.5914831 21.6760602,10.866035 L18.1230359,14.2290581 Z" id="Path" fill="#115DFF" fill-rule="nonzero"></path>
            </g>
        </g>
    </g>
</svg>