<?xml version="1.0" encoding="UTF-8"?>
<svg width="30px" height="30px" viewBox="0 0 30 30" version="1.1" xmlns="http://www.w3.org/2000/svg" xmlns:xlink="http://www.w3.org/1999/xlink">
    <title>product-fleet</title>
    <g id="Assets" stroke="none" stroke-width="1" fill="none" fill-rule="evenodd">
        <g id="assets-copy" transform="translate(-90.000000, -124.000000)">
            <g id="product-fleet" transform="translate(90.000000, 124.000000)">
                <rect id="Rectangle" fill-opacity="0" fill="#FFFFFF" x="0" y="0" width="30" height="30"></rect>
                <g id="fleet" transform="translate(2.000000, 3.000000)">
                    <g id="Truck" stroke="#115DFF" stroke-width="2">
                        <path d="M23.483871,5.87096774 L16.7741935,5.87096774 L16.7741935,1.67741935 L21.2386452,1.67741935 C21.4062194,1.67741935 21.5700194,1.72765806 21.7088258,1.82159355 C21.8476323,1.9156129 21.955071,2.04896774 22.0173032,2.20463226 L23.483871,5.87096774 Z" id="Path" stroke-linecap="round" stroke-linejoin="round"></path>
                        <line x1="0" y1="8.38709677" x2="16.7741935" y2="8.38709677" id="Path" stroke-linecap="round" stroke-linejoin="round"></line>
                        <path d="M18.0322581,15.9354839 C19.4219161,15.9354839 20.5483871,14.8090129 20.5483871,13.4193548 C20.5483871,12.0296968 19.4219161,10.9032258 18.0322581,10.9032258 C16.6426,10.9032258 15.516129,12.0296968 15.516129,13.4193548 C15.516129,14.8090129 16.6426,15.9354839 18.0322581,15.9354839 Z" id="Path"></path>
                        <path d="M5.4516129,15.9354839 C6.84127097,15.9354839 7.96774194,14.8090129 7.96774194,13.4193548 C7.96774194,12.0296968 6.84127097,10.9032258 5.4516129,10.9032258 C4.06199677,10.9032258 2.93548387,12.0296968 2.93548387,13.4193548 C2.93548387,14.8090129 4.06199677,15.9354839 5.4516129,15.9354839 Z" id="Path"></path>
                        <line x1="15.516129" y1="13.4193548" x2="7.96774194" y2="13.4193548" id="Path" stroke-linecap="round" stroke-linejoin="round"></line>
                        <path d="M2.93548387,13.4193548 L0.838709677,13.4193548 C0.616267097,13.4193548 0.40294129,13.3309548 0.245649677,13.1736968 C0.0883664516,13.0164387 0,12.803071 0,12.5806452 L0,0.838709677 C0,0.616267097 0.0883664516,0.40294129 0.245649677,0.245649677 C0.40294129,0.0883664516 0.616267097,0 0.838709677,0 L16.7741935,0 L16.7741935,11.2403032" id="Path" stroke-linecap="round" stroke-linejoin="round"></path>
                        <path d="M16.7741935,11.2403032 L16.7741935,5.87096774 L23.483871,5.87096774 L23.483871,12.5806452 C23.483871,12.803071 23.395471,13.0164387 23.2382129,13.1736968 C23.0809548,13.3309548 22.8675871,13.4193548 22.6451613,13.4193548 L20.5483871,13.4193548" id="Path" stroke-linecap="round" stroke-linejoin="round"></path>
                    </g>
                    <polygon id="Path-2" fill="#FFFFFF" points="2.79980899 9.22580645 2.40315659 12.5806452 2.40315659 16.0253456 2.79980899 20.5184332 26 21.3870968 25.7163238 14.8870968 24.2152293 11.244605 18.6500876 9.22580645"></polygon>
                    <g id="Truck-Copy" transform="translate(2.516129, 9.225806)" stroke="#151927" stroke-width="2">
                        <path d="M23.483871,5.87096774 L16.7741935,5.87096774 L16.7741935,1.67741935 L21.2386452,1.67741935 C21.4062194,1.67741935 21.5700194,1.72765806 21.7088258,1.82159355 C21.8476323,1.9156129 21.955071,2.04896774 22.0173032,2.20463226 L23.483871,5.87096774 Z" id="Path" stroke-linecap="round" stroke-linejoin="round"></path>
                        <line x1="0" y1="8.38709677" x2="16.7741935" y2="8.38709677" id="Path" stroke-linecap="round" stroke-linejoin="round"></line>
                        <path d="M18.0322581,15.9354839 C19.4219161,15.9354839 20.5483871,14.8090129 20.5483871,13.4193548 C20.5483871,12.0296968 19.4219161,10.9032258 18.0322581,10.9032258 C16.6426,10.9032258 15.516129,12.0296968 15.516129,13.4193548 C15.516129,14.8090129 16.6426,15.9354839 18.0322581,15.9354839 Z" id="Path"></path>
                        <path d="M5.4516129,15.9354839 C6.84127097,15.9354839 7.96774194,14.8090129 7.96774194,13.4193548 C7.96774194,12.0296968 6.84127097,10.9032258 5.4516129,10.9032258 C4.06199677,10.9032258 2.93548387,12.0296968 2.93548387,13.4193548 C2.93548387,14.8090129 4.06199677,15.9354839 5.4516129,15.9354839 Z" id="Path"></path>
                        <line x1="15.516129" y1="13.4193548" x2="7.96774194" y2="13.4193548" id="Path" stroke-linecap="round" stroke-linejoin="round"></line>
                        <path d="M2.93548387,13.4193548 L0.838709677,13.4193548 C0.616267097,13.4193548 0.40294129,13.3309548 0.245649677,13.1736968 C0.0883664516,13.0164387 0,12.803071 0,12.5806452 L0,0.838709677 C0,0.616267097 0.0883664516,0.40294129 0.245649677,0.245649677 C0.40294129,0.0883664516 0.616267097,0 0.838709677,0 L16.7741935,0 L16.7741935,11.2403032" id="Path" stroke-linecap="round" stroke-linejoin="round"></path>
                        <path d="M16.7741935,11.2403032 L16.7741935,5.87096774 L23.483871,5.87096774 L23.483871,12.5806452 C23.483871,12.803071 23.395471,13.0164387 23.2382129,13.1736968 C23.0809548,13.3309548 22.8675871,13.4193548 22.6451613,13.4193548 L20.5483871,13.4193548" id="Path" stroke-linecap="round" stroke-linejoin="round"></path>
                    </g>
                </g>
            </g>
        </g>
    </g>
</svg>