<?xml version="1.0" encoding="UTF-8"?>
<svg width="30px" height="30px" viewBox="0 0 30 30" version="1.1" xmlns="http://www.w3.org/2000/svg" xmlns:xlink="http://www.w3.org/1999/xlink">
    <title>product-leasing</title>
    <g id="Assets" stroke="none" stroke-width="1" fill="none" fill-rule="evenodd">
        <g id="assets-copy" transform="translate(-38.000000, -166.000000)">
            <g id="product-leasing" transform="translate(38.000000, 166.000000)">
                <rect id="Rectangle" fill="#FFFFFF" opacity="0" x="0" y="0" width="30" height="30"></rect>
                <g id="Buildings" transform="translate(2.000000, 3.000000)" stroke-linecap="round" stroke-linejoin="round" stroke-width="2">
                    <line x1="0" y1="23.5" x2="26" y2="23.5" id="Path" stroke="#151927"></line>
                    <path d="M15,23 L15,1 C15,0.73479 14.9021288,0.48043 14.728022,0.2929 C14.5538224,0.10536 14.3176872,0 14.0714306,0 L2.92856944,0 C2.68229425,0 2.44611262,0.10536 2.2719687,0.2929 C2.09782479,0.48043 2,0.73479 2,1 L2,23" id="Path" stroke="#151927"></path>
                    <path d="M24,23 L24,9 C24,8.7348 23.90514,8.4804 23.73639,8.2929 C23.56755,8.1054 23.33868,8 23.1,8 L15,8" id="Path" stroke="#115DFF"></path>
                    <line x1="5" y1="4.5" x2="9" y2="4.5" id="Path" stroke="#151927"></line>
                    <line x1="7" y1="12.5" x2="11" y2="12.5" id="Path" stroke="#151927"></line>
                    <line x1="5" y1="17.5" x2="9" y2="17.5" id="Path" stroke="#151927"></line>
                    <line x1="18" y1="17.5" x2="20" y2="17.5" id="Path" stroke="#115DFF"></line>
                    <line x1="18" y1="12.5" x2="20" y2="12.5" id="Path" stroke="#115DFF"></line>
                </g>
            </g>
        </g>
    </g>
</svg>