<?xml version="1.0" encoding="UTF-8"?>
<svg width="25px" height="25px" viewBox="0 0 25 25" version="1.1" xmlns="http://www.w3.org/2000/svg" xmlns:xlink="http://www.w3.org/1999/xlink">
    <title>products</title>
    <g id="Assets" stroke="none" stroke-width="1" fill="none" fill-rule="evenodd">
        <g id="assets" transform="translate(-128.000000, -389.000000)">
            <g id="products" transform="translate(128.000000, 389.000000)">
                <rect id="Rectangle" fill-opacity="0" fill="#FFFFFF" x="0" y="0" width="25" height="25"></rect>
                <g id="Wallet" transform="translate(2.000000, 3.000000)" fill="#115DFF">
                    <path d="M16.557345,5.65089 L21,5.65089 C21,2.0838195 18.86262,0 15.24138,0 L5.758662,0 C2.137338,0 0,2.0838195 0,5.6053935 L0,13.294575 C0,16.81617 2.137338,18.9 5.758662,18.9 L15.24138,18.9 C18.86262,18.9 21,16.81617 21,13.294575 L21,12.966975 L16.557345,12.966975 C14.49546,12.966975 12.823965,11.337375 12.823965,9.32715 C12.823965,7.3169145 14.49546,5.6872935 16.557345,5.6872935 L16.557345,5.65089 Z M16.557345,7.2160305 L20.215965,7.2160305 C20.648985,7.2160305 21,7.558215 21,7.98042 L21,10.63755 C20.99496,11.057655 20.646885,11.397015 20.215965,11.401845 L16.641345,11.401845 C15.59754,11.4156 14.684775,10.71882 14.448,9.727515 C14.329455,9.112215 14.49588,8.47728 14.902755,7.99281 C15.309525,7.508445 15.915165,7.2240735 16.557345,7.2160305 Z M16.716,10.00965 L17.061345,10.00965 C17.504655,10.00965 17.863965,9.659265 17.863965,9.227085 C17.863965,8.794905 17.504655,8.44452 17.061345,8.44452 L16.716,8.44452 C16.504005,8.442105 16.29978,8.52243 16.149,8.66775 C15.99822,8.81307 15.913275,9.011205 15.9133799,9.21795 C15.913275,9.651705 16.27122,10.00461 16.716,10.00965 Z M4.974669,5.65089 L10.90131,5.65089 C11.34462,5.65089 11.704035,5.300526 11.704035,4.8683145 C11.704035,4.4361135 11.34462,4.0857495 10.90131,4.0857495 L4.974669,4.0857495 C4.5349815,4.085718 4.17711,4.43058 4.1719965,4.8592215 C4.1719965,5.2929135 4.5298575,5.6459025 4.974669,5.65089 Z" id="Shape"></path>
                </g>
            </g>
        </g>
    </g>
</svg>