<?xml version="1.0" encoding="UTF-8"?>
<svg width="30px" height="30px" viewBox="0 0 30 30" version="1.1" xmlns="http://www.w3.org/2000/svg" xmlns:xlink="http://www.w3.org/1999/xlink">
    <title>product-credit</title>
    <g id="Assets" stroke="none" stroke-width="1" fill="none" fill-rule="evenodd">
        <g id="assets-copy" transform="translate(-33.000000, -40.000000)">
            <g id="product-credit" transform="translate(33.000000, 40.000000)">
                <rect id="Rectangle" fill="#FFFFFF" opacity="0" x="0" y="0" width="30" height="30"></rect>
                <g id="Truck" transform="translate(2.000000, 6.000000)" stroke-width="2">
                    <path d="M26,6.5 L18.5714286,6.5 L18.5714286,1.85714286 L23.5142143,1.85714286 C23.6997429,1.85714286 23.8810929,1.91276429 24.0347714,2.01676429 C24.18845,2.12085714 24.3074,2.2685 24.3763,2.44084286 L26,6.5 Z" id="Path" stroke="#115DFF" stroke-linecap="round" stroke-linejoin="round"></path>
                    <line x1="0" y1="9.28571429" x2="18.5714286" y2="9.28571429" id="Path" stroke="#151927" stroke-linecap="round" stroke-linejoin="round"></line>
                    <path d="M19.9642857,17.6428571 C21.5028357,17.6428571 22.75,16.3956929 22.75,14.8571429 C22.75,13.3185929 21.5028357,12.0714286 19.9642857,12.0714286 C18.4257357,12.0714286 17.1785714,13.3185929 17.1785714,14.8571429 C17.1785714,16.3956929 18.4257357,17.6428571 19.9642857,17.6428571 Z" id="Path" stroke="#151927"></path>
                    <path d="M6.03571429,17.6428571 C7.57426429,17.6428571 8.82142857,16.3956929 8.82142857,14.8571429 C8.82142857,13.3185929 7.57426429,12.0714286 6.03571429,12.0714286 C4.49721071,12.0714286 3.25,13.3185929 3.25,14.8571429 C3.25,16.3956929 4.49721071,17.6428571 6.03571429,17.6428571 Z" id="Path" stroke="#151927"></path>
                    <line x1="17.1785714" y1="14.8571429" x2="8.82142857" y2="14.8571429" id="Path" stroke="#151927" stroke-linecap="round" stroke-linejoin="round"></line>
                    <path d="M3.25,14.8571429 L0.928571429,14.8571429 C0.682295714,14.8571429 0.446113571,14.7592714 0.271969286,14.5851643 C0.0978342857,14.4110571 0,14.1748286 0,13.9285714 L0,0.928571429 C0,0.682295714 0.0978342857,0.446113571 0.271969286,0.271969286 C0.446113571,0.0978342857 0.682295714,0 0.928571429,0 L18.5714286,0 L18.5714286,12.4446214" id="Path" stroke="#151927" stroke-linecap="round" stroke-linejoin="round"></path>
                    <path d="M18.5714286,12.4446214 L18.5714286,6.5 L26,6.5 L26,13.9285714 C26,14.1748286 25.9021286,14.4110571 25.7280214,14.5851643 C25.5539143,14.7592714 25.3176857,14.8571429 25.0714286,14.8571429 L22.75,14.8571429" id="Path" stroke="#115DFF" stroke-linecap="round" stroke-linejoin="round"></path>
                </g>
            </g>
        </g>
    </g>
</svg>