<?xml version="1.0" encoding="UTF-8"?>
<svg width="40px" height="40px" viewBox="0 0 40 40" version="1.1" xmlns="http://www.w3.org/2000/svg" xmlns:xlink="http://www.w3.org/1999/xlink">
    <title>RocketLaunch</title>
    <g id="Assets" stroke="none" stroke-width="1" fill="none" fill-rule="evenodd" stroke-linecap="round" stroke-linejoin="round">
        <g id="assets" transform="translate(-46.000000, -421.000000)" stroke-width="3">
            <g id="RocketLaunch" transform="translate(48.000000, 423.000000)">
                <path d="M12,28.3999378 C9.80000622,35 1,35 1,35 C1,35 1,26.1999689 7.60004356,24" id="Path" stroke="#115DFF"></path>
                <path d="M31.2039778,13.6776333 L17.8816225,27 L9,18.1183699 L22.3223553,4.79603453 C27.3669297,-0.24857564 32.4116612,-0.199354493 34.5629453,0.121627046 C34.8942261,0.171005198 35.2008571,0.325482666 35.4376208,0.56230939 C35.6745415,0.799120413 35.8290346,1.10575167 35.8783342,1.43698565 C36.1994096,3.58838153 36.2485522,8.63299171 31.2039778,13.6776333 Z" id="Path" stroke="#FFFFFF"></path>
                <path d="M30,15 L30,27.9247947 C30,28.1350542 29.9597092,28.3432319 29.8814612,28.5376379 C29.8033686,28.7318838 29.6887189,28.9083544 29.5443566,29.0571214 L23.2554199,35.5309685 C23.0562996,35.7359435 22.8067769,35.8813477 22.5337642,35.951968 C22.2605959,36.0224281 21.9740493,36.015222 21.7046146,35.9313103 C21.4350243,35.8472386 21.192813,35.689664 21.0034931,35.4749207 C20.8143287,35.2603375 20.6852116,34.9969126 20.6299868,34.7126699 L19,26.3234275" id="Path" stroke="#FFFFFF"></path>
                <path d="M20,7 L7.92691284,7 C7.72046867,7 7.51606804,7.04022888 7.32534337,7.1184154 C7.13463442,7.19658636 6.96134267,7.31117488 6.81537141,7.45563171 L0.460418517,13.7446995 C0.259224662,13.9438216 0.116413023,14.1931908 0.0472157927,14.4662058 C-0.021997157,14.7393764 -0.0150019804,15.0259255 0.0674467866,15.2955181 C0.149895554,15.5649551 0.30471689,15.8071684 0.515389602,15.9964899 C0.726046595,16.1858114 0.984663776,16.3149296 1.26366915,16.3701549 L9.49879976,18" id="Path" stroke="#FFFFFF"></path>
            </g>
        </g>
    </g>
</svg>