<?xml version="1.0" encoding="UTF-8"?>
<svg width="42px" height="43px" viewBox="0 0 42 43" version="1.1" xmlns="http://www.w3.org/2000/svg" xmlns:xlink="http://www.w3.org/1999/xlink">
    <title>succesfull</title>
    <g id="Assets" stroke="none" stroke-width="1" fill="none" fill-rule="evenodd">
        <g id="assets-copy" transform="translate(-95.000000, -213.000000)" fill="#23BF0A" fill-rule="nonzero">
            <g id="succesfull" transform="translate(95.000000, 213.000000)">
                <path d="M21,-7.10542736e-14 C16.8465226,-7.10542736e-14 12.7864149,1.25118356 9.33302942,3.59532299 C5.87959552,5.93944601 3.18797701,9.27126951 1.59853544,13.1693945 C0.00909387434,17.0676509 -0.406770748,21.3569636 0.403522343,25.4953019 C1.21381543,29.6334762 3.21385547,33.4347479 6.15077014,36.4182965 C9.08766865,39.4018452 12.8295456,41.433599 16.9030611,42.2567374 C20.9767381,43.0798759 25.199192,42.6574759 29.0363767,41.0427067 C32.8735614,39.4281016 36.1534384,36.6938247 38.4608538,33.1854761 C40.7684307,29.6772916 42,25.5527378 42,21.3333328 C41.9935385,15.677374 39.7790077,10.2549659 35.8421537,6.255606 C31.9052998,2.2562461 26.5675843,0.00653128189 21,-7.10542736e-14 Z M30.8269933,17.4754618 L18.7915846,28.8829024 C18.4856942,29.1721625 18.079372,29.3333333 17.6569675,29.3333333 C17.2345631,29.3333333 16.8284049,29.1721625 16.5223504,28.8829024 L10.5062871,23.1791821 C10.1919782,22.8803072 10.0100358,22.4696393 10.0004028,22.0374603 C9.99076991,21.6054442 10.1542342,21.187117 10.4549061,20.8747161 C10.755578,20.5621523 11.1689403,20.3809369 11.6039807,20.3708332 C12.0390212,20.3607295 12.460441,20.5225522 12.7755213,20.8207752 L17.6569675,25.4502406 L28.5577592,15.117055 C28.8728394,14.8188319 29.2942592,14.6570092 29.7292997,14.6671129 C30.1645043,14.6772166 30.5777189,14.858432 30.8783579,15.1709958 C31.178997,15.4833968 31.342609,15.9017239 31.3329268,16.33374 C31.3232447,16.765919 31.141253,17.1765869 30.8269933,17.4754618 Z" id="Shape"></path>
            </g>
        </g>
    </g>
</svg>